<mxfile host="app.diagrams.net" modified="2023-05-01T14:16:07.417Z" agent="Mozilla/5.0 (Windows NT 10.0; Win64; x64; rv:109.0) Gecko/20100101 Firefox/112.0" etag="FQnBKKqXK2F6mAYTImck" version="21.1.7" type="device">
  <diagram id="C5RBs43oDa-KdzZeNtuy" name="Page-1">
    <mxGraphModel dx="1719" dy="926" grid="1" gridSize="10" guides="1" tooltips="1" connect="1" arrows="1" fold="1" page="1" pageScale="1" pageWidth="3300" pageHeight="4681" math="0" shadow="0">
      <root>
        <mxCell id="WIyWlLk6GJQsqaUBKTNV-0" />
        <mxCell id="WIyWlLk6GJQsqaUBKTNV-1" parent="WIyWlLk6GJQsqaUBKTNV-0" />
        <mxCell id="ZtRgjq0Z7VZzeEkhGhvm-0" value="Lutemon" style="swimlane;fontStyle=1;align=center;verticalAlign=top;childLayout=stackLayout;horizontal=1;startSize=26;horizontalStack=0;resizeParent=1;resizeParentMax=0;resizeLast=0;collapsible=1;marginBottom=0;whiteSpace=wrap;html=1;" vertex="1" parent="WIyWlLk6GJQsqaUBKTNV-1">
          <mxGeometry x="1170" y="1070" width="330" height="560" as="geometry" />
        </mxCell>
        <mxCell id="ZtRgjq0Z7VZzeEkhGhvm-1" value="&lt;div&gt;# name: String&lt;/div&gt;&lt;div&gt;# color: String&lt;/div&gt;&lt;div&gt;# status: String&lt;/div&gt;&lt;div&gt;# attack: int&lt;/div&gt;&lt;div&gt;# defence: int&lt;/div&gt;&lt;div&gt;# experience: int&lt;/div&gt;&lt;div&gt;# health: int&lt;/div&gt;&lt;div&gt;# maxHealth: int&lt;/div&gt;&lt;div&gt;# wins: int&lt;/div&gt;&lt;div&gt;# battles: int&lt;/div&gt;&lt;div&gt;# trainingDays: int&lt;/div&gt;&lt;div&gt;# image: int&lt;br&gt;&lt;/div&gt;" style="text;strokeColor=none;fillColor=none;align=left;verticalAlign=top;spacingLeft=4;spacingRight=4;overflow=hidden;rotatable=0;points=[[0,0.5],[1,0.5]];portConstraint=eastwest;whiteSpace=wrap;html=1;" vertex="1" parent="ZtRgjq0Z7VZzeEkhGhvm-0">
          <mxGeometry y="26" width="330" height="184" as="geometry" />
        </mxCell>
        <mxCell id="ZtRgjq0Z7VZzeEkhGhvm-2" value="" style="line;strokeWidth=1;fillColor=none;align=left;verticalAlign=middle;spacingTop=-1;spacingLeft=3;spacingRight=3;rotatable=0;labelPosition=right;points=[];portConstraint=eastwest;strokeColor=inherit;" vertex="1" parent="ZtRgjq0Z7VZzeEkhGhvm-0">
          <mxGeometry y="210" width="330" height="8" as="geometry" />
        </mxCell>
        <mxCell id="ZtRgjq0Z7VZzeEkhGhvm-3" value="&lt;div&gt;+ Lutemon(name: String,color: String, status: String, attack: int, defence: int, experience: int, health: int, maxHealth: int, wins: int, battles: int, trainingDays: int, image: int)&lt;/div&gt;&lt;div&gt;+ defence(lutemon: Lutemon): void&lt;/div&gt;&lt;div&gt;+ attack(): int&lt;/div&gt;&lt;div&gt;+ getName(): String&lt;/div&gt;&lt;div&gt;+ getColor(): String&lt;/div&gt;&lt;div&gt;+ getStatus(): String&lt;/div&gt;&lt;div&gt;+ getAttack(): int&lt;/div&gt;&lt;div&gt;+ getDefence(): int&lt;/div&gt;&lt;div&gt;+ getExperience(): int&lt;/div&gt;&lt;div&gt;+ getHealth(): int&lt;/div&gt;&lt;div&gt;+ getMaxHealth(): int&lt;/div&gt;&lt;div&gt;+ getImage(): int&lt;/div&gt;&lt;div&gt;+ getWins(): int&lt;/div&gt;&lt;div&gt;+ getBattles(): int&lt;/div&gt;&lt;div&gt;+ getTrainingDays(): int&lt;/div&gt;&lt;div&gt;+ addExperience(): void&lt;/div&gt;&lt;div&gt;+ setHealth(maxHealth: int): void&lt;/div&gt;&lt;div&gt;+ setStatus(status: String): void&lt;/div&gt;&lt;div&gt;+ addWin(): void&lt;/div&gt;&lt;div&gt;+ addBattles(): void&lt;/div&gt;&lt;div&gt;+ addTrainingDays(): void&lt;br&gt;&lt;/div&gt;&lt;div&gt;&lt;br&gt;&lt;/div&gt;" style="text;strokeColor=none;fillColor=none;align=left;verticalAlign=top;spacingLeft=4;spacingRight=4;overflow=hidden;rotatable=0;points=[[0,0.5],[1,0.5]];portConstraint=eastwest;whiteSpace=wrap;html=1;" vertex="1" parent="ZtRgjq0Z7VZzeEkhGhvm-0">
          <mxGeometry y="218" width="330" height="342" as="geometry" />
        </mxCell>
        <mxCell id="ZtRgjq0Z7VZzeEkhGhvm-4" value="Armatuuri" style="swimlane;fontStyle=1;align=center;verticalAlign=top;childLayout=stackLayout;horizontal=1;startSize=26;horizontalStack=0;resizeParent=1;resizeParentMax=0;resizeLast=0;collapsible=1;marginBottom=0;whiteSpace=wrap;html=1;" vertex="1" parent="WIyWlLk6GJQsqaUBKTNV-1">
          <mxGeometry x="1590" y="1160" width="150" height="60" as="geometry" />
        </mxCell>
        <mxCell id="ZtRgjq0Z7VZzeEkhGhvm-6" value="" style="line;strokeWidth=1;fillColor=none;align=left;verticalAlign=middle;spacingTop=-1;spacingLeft=3;spacingRight=3;rotatable=0;labelPosition=right;points=[];portConstraint=eastwest;strokeColor=inherit;" vertex="1" parent="ZtRgjq0Z7VZzeEkhGhvm-4">
          <mxGeometry y="26" width="150" height="8" as="geometry" />
        </mxCell>
        <mxCell id="ZtRgjq0Z7VZzeEkhGhvm-7" value="+ Armatuuri(name: String)" style="text;strokeColor=none;fillColor=none;align=left;verticalAlign=top;spacingLeft=4;spacingRight=4;overflow=hidden;rotatable=0;points=[[0,0.5],[1,0.5]];portConstraint=eastwest;whiteSpace=wrap;html=1;" vertex="1" parent="ZtRgjq0Z7VZzeEkhGhvm-4">
          <mxGeometry y="34" width="150" height="26" as="geometry" />
        </mxCell>
        <mxCell id="ZtRgjq0Z7VZzeEkhGhvm-8" value="KeTek" style="swimlane;fontStyle=1;align=center;verticalAlign=top;childLayout=stackLayout;horizontal=1;startSize=26;horizontalStack=0;resizeParent=1;resizeParentMax=0;resizeLast=0;collapsible=1;marginBottom=0;whiteSpace=wrap;html=1;" vertex="1" parent="WIyWlLk6GJQsqaUBKTNV-1">
          <mxGeometry x="1590" y="1230" width="150" height="60" as="geometry" />
        </mxCell>
        <mxCell id="ZtRgjq0Z7VZzeEkhGhvm-9" value="" style="line;strokeWidth=1;fillColor=none;align=left;verticalAlign=middle;spacingTop=-1;spacingLeft=3;spacingRight=3;rotatable=0;labelPosition=right;points=[];portConstraint=eastwest;strokeColor=inherit;" vertex="1" parent="ZtRgjq0Z7VZzeEkhGhvm-8">
          <mxGeometry y="26" width="150" height="8" as="geometry" />
        </mxCell>
        <mxCell id="ZtRgjq0Z7VZzeEkhGhvm-10" value="+ KeTek(name: String)" style="text;strokeColor=none;fillColor=none;align=left;verticalAlign=top;spacingLeft=4;spacingRight=4;overflow=hidden;rotatable=0;points=[[0,0.5],[1,0.5]];portConstraint=eastwest;whiteSpace=wrap;html=1;" vertex="1" parent="ZtRgjq0Z7VZzeEkhGhvm-8">
          <mxGeometry y="34" width="150" height="26" as="geometry" />
        </mxCell>
        <mxCell id="ZtRgjq0Z7VZzeEkhGhvm-11" value="KRK" style="swimlane;fontStyle=1;align=center;verticalAlign=top;childLayout=stackLayout;horizontal=1;startSize=26;horizontalStack=0;resizeParent=1;resizeParentMax=0;resizeLast=0;collapsible=1;marginBottom=0;whiteSpace=wrap;html=1;" vertex="1" parent="WIyWlLk6GJQsqaUBKTNV-1">
          <mxGeometry x="1590" y="1300" width="150" height="60" as="geometry" />
        </mxCell>
        <mxCell id="ZtRgjq0Z7VZzeEkhGhvm-12" value="" style="line;strokeWidth=1;fillColor=none;align=left;verticalAlign=middle;spacingTop=-1;spacingLeft=3;spacingRight=3;rotatable=0;labelPosition=right;points=[];portConstraint=eastwest;strokeColor=inherit;" vertex="1" parent="ZtRgjq0Z7VZzeEkhGhvm-11">
          <mxGeometry y="26" width="150" height="8" as="geometry" />
        </mxCell>
        <mxCell id="ZtRgjq0Z7VZzeEkhGhvm-13" value="+ KRK(name: String)" style="text;strokeColor=none;fillColor=none;align=left;verticalAlign=top;spacingLeft=4;spacingRight=4;overflow=hidden;rotatable=0;points=[[0,0.5],[1,0.5]];portConstraint=eastwest;whiteSpace=wrap;html=1;" vertex="1" parent="ZtRgjq0Z7VZzeEkhGhvm-11">
          <mxGeometry y="34" width="150" height="26" as="geometry" />
        </mxCell>
        <mxCell id="ZtRgjq0Z7VZzeEkhGhvm-14" value="Lateksii" style="swimlane;fontStyle=1;align=center;verticalAlign=top;childLayout=stackLayout;horizontal=1;startSize=26;horizontalStack=0;resizeParent=1;resizeParentMax=0;resizeLast=0;collapsible=1;marginBottom=0;whiteSpace=wrap;html=1;" vertex="1" parent="WIyWlLk6GJQsqaUBKTNV-1">
          <mxGeometry x="1590" y="1370" width="150" height="60" as="geometry" />
        </mxCell>
        <mxCell id="ZtRgjq0Z7VZzeEkhGhvm-15" value="" style="line;strokeWidth=1;fillColor=none;align=left;verticalAlign=middle;spacingTop=-1;spacingLeft=3;spacingRight=3;rotatable=0;labelPosition=right;points=[];portConstraint=eastwest;strokeColor=inherit;" vertex="1" parent="ZtRgjq0Z7VZzeEkhGhvm-14">
          <mxGeometry y="26" width="150" height="8" as="geometry" />
        </mxCell>
        <mxCell id="ZtRgjq0Z7VZzeEkhGhvm-16" value="+ Lateksii(name: String)" style="text;strokeColor=none;fillColor=none;align=left;verticalAlign=top;spacingLeft=4;spacingRight=4;overflow=hidden;rotatable=0;points=[[0,0.5],[1,0.5]];portConstraint=eastwest;whiteSpace=wrap;html=1;" vertex="1" parent="ZtRgjq0Z7VZzeEkhGhvm-14">
          <mxGeometry y="34" width="150" height="26" as="geometry" />
        </mxCell>
        <mxCell id="ZtRgjq0Z7VZzeEkhGhvm-17" value="Satky" style="swimlane;fontStyle=1;align=center;verticalAlign=top;childLayout=stackLayout;horizontal=1;startSize=26;horizontalStack=0;resizeParent=1;resizeParentMax=0;resizeLast=0;collapsible=1;marginBottom=0;whiteSpace=wrap;html=1;" vertex="1" parent="WIyWlLk6GJQsqaUBKTNV-1">
          <mxGeometry x="1590" y="1440" width="150" height="60" as="geometry" />
        </mxCell>
        <mxCell id="ZtRgjq0Z7VZzeEkhGhvm-18" value="" style="line;strokeWidth=1;fillColor=none;align=left;verticalAlign=middle;spacingTop=-1;spacingLeft=3;spacingRight=3;rotatable=0;labelPosition=right;points=[];portConstraint=eastwest;strokeColor=inherit;" vertex="1" parent="ZtRgjq0Z7VZzeEkhGhvm-17">
          <mxGeometry y="26" width="150" height="8" as="geometry" />
        </mxCell>
        <mxCell id="ZtRgjq0Z7VZzeEkhGhvm-19" value="+ Satky(name: String)" style="text;strokeColor=none;fillColor=none;align=left;verticalAlign=top;spacingLeft=4;spacingRight=4;overflow=hidden;rotatable=0;points=[[0,0.5],[1,0.5]];portConstraint=eastwest;whiteSpace=wrap;html=1;" vertex="1" parent="ZtRgjq0Z7VZzeEkhGhvm-17">
          <mxGeometry y="34" width="150" height="26" as="geometry" />
        </mxCell>
        <mxCell id="ZtRgjq0Z7VZzeEkhGhvm-20" value="&lt;div&gt;&amp;lt;&amp;lt;Abstract&amp;gt;&amp;gt;&lt;/div&gt;&lt;div&gt;LutemonHabitat&lt;br&gt;&lt;/div&gt;" style="swimlane;fontStyle=1;align=center;verticalAlign=top;childLayout=stackLayout;horizontal=1;startSize=38;horizontalStack=0;resizeParent=1;resizeParentMax=0;resizeLast=0;collapsible=1;marginBottom=0;whiteSpace=wrap;html=1;" vertex="1" parent="WIyWlLk6GJQsqaUBKTNV-1">
          <mxGeometry x="2080" y="770" width="240" height="130" as="geometry" />
        </mxCell>
        <mxCell id="ZtRgjq0Z7VZzeEkhGhvm-21" value="# lutemons: ArrayList&amp;lt;Lutemon&amp;gt;" style="text;strokeColor=none;fillColor=none;align=left;verticalAlign=top;spacingLeft=4;spacingRight=4;overflow=hidden;rotatable=0;points=[[0,0.5],[1,0.5]];portConstraint=eastwest;whiteSpace=wrap;html=1;" vertex="1" parent="ZtRgjq0Z7VZzeEkhGhvm-20">
          <mxGeometry y="38" width="240" height="22" as="geometry" />
        </mxCell>
        <mxCell id="ZtRgjq0Z7VZzeEkhGhvm-22" value="" style="line;strokeWidth=1;fillColor=none;align=left;verticalAlign=middle;spacingTop=-1;spacingLeft=3;spacingRight=3;rotatable=0;labelPosition=right;points=[];portConstraint=eastwest;strokeColor=inherit;" vertex="1" parent="ZtRgjq0Z7VZzeEkhGhvm-20">
          <mxGeometry y="60" width="240" height="8" as="geometry" />
        </mxCell>
        <mxCell id="ZtRgjq0Z7VZzeEkhGhvm-23" value="&lt;div&gt;+ addLutemon(lutemon: Lutemon): void&lt;/div&gt;&lt;div&gt;+ removeLutemon(lutemon: Lutemon): void&lt;/div&gt;&lt;div&gt;+ getLutemons(): ArrayList&amp;lt;Lutemon&amp;gt;&lt;br&gt;&lt;/div&gt;" style="text;strokeColor=none;fillColor=none;align=left;verticalAlign=top;spacingLeft=4;spacingRight=4;overflow=hidden;rotatable=0;points=[[0,0.5],[1,0.5]];portConstraint=eastwest;whiteSpace=wrap;html=1;" vertex="1" parent="ZtRgjq0Z7VZzeEkhGhvm-20">
          <mxGeometry y="68" width="240" height="62" as="geometry" />
        </mxCell>
        <mxCell id="ZtRgjq0Z7VZzeEkhGhvm-24" value="Home" style="swimlane;fontStyle=1;align=center;verticalAlign=top;childLayout=stackLayout;horizontal=1;startSize=26;horizontalStack=0;resizeParent=1;resizeParentMax=0;resizeLast=0;collapsible=1;marginBottom=0;whiteSpace=wrap;html=1;" vertex="1" parent="WIyWlLk6GJQsqaUBKTNV-1">
          <mxGeometry x="1620" y="700" width="350" height="90" as="geometry" />
        </mxCell>
        <mxCell id="ZtRgjq0Z7VZzeEkhGhvm-26" value="" style="line;strokeWidth=1;fillColor=none;align=left;verticalAlign=middle;spacingTop=-1;spacingLeft=3;spacingRight=3;rotatable=0;labelPosition=right;points=[];portConstraint=eastwest;strokeColor=inherit;" vertex="1" parent="ZtRgjq0Z7VZzeEkhGhvm-24">
          <mxGeometry y="26" width="350" height="8" as="geometry" />
        </mxCell>
        <mxCell id="ZtRgjq0Z7VZzeEkhGhvm-27" value="&lt;div&gt;+ addLutemon(lutemon: Lutemon): void&lt;/div&gt;&lt;div&gt;+ createLutemon(lutemon: Lutemon): void&lt;/div&gt;&lt;div&gt;+ removeLutemon(lutemon: Lutemon): void&lt;br&gt;&lt;/div&gt;" style="text;strokeColor=none;fillColor=none;align=left;verticalAlign=top;spacingLeft=4;spacingRight=4;overflow=hidden;rotatable=0;points=[[0,0.5],[1,0.5]];portConstraint=eastwest;whiteSpace=wrap;html=1;" vertex="1" parent="ZtRgjq0Z7VZzeEkhGhvm-24">
          <mxGeometry y="34" width="350" height="56" as="geometry" />
        </mxCell>
        <mxCell id="ZtRgjq0Z7VZzeEkhGhvm-28" value="TrainingArea" style="swimlane;fontStyle=1;align=center;verticalAlign=top;childLayout=stackLayout;horizontal=1;startSize=26;horizontalStack=0;resizeParent=1;resizeParentMax=0;resizeLast=0;collapsible=1;marginBottom=0;whiteSpace=wrap;html=1;" vertex="1" parent="WIyWlLk6GJQsqaUBKTNV-1">
          <mxGeometry x="1620" y="800" width="350" height="60" as="geometry" />
        </mxCell>
        <mxCell id="ZtRgjq0Z7VZzeEkhGhvm-30" value="" style="line;strokeWidth=1;fillColor=none;align=left;verticalAlign=middle;spacingTop=-1;spacingLeft=3;spacingRight=3;rotatable=0;labelPosition=right;points=[];portConstraint=eastwest;strokeColor=inherit;" vertex="1" parent="ZtRgjq0Z7VZzeEkhGhvm-28">
          <mxGeometry y="26" width="350" height="8" as="geometry" />
        </mxCell>
        <mxCell id="ZtRgjq0Z7VZzeEkhGhvm-67" value="+ train(): void" style="text;strokeColor=none;fillColor=none;align=left;verticalAlign=top;spacingLeft=4;spacingRight=4;overflow=hidden;rotatable=0;points=[[0,0.5],[1,0.5]];portConstraint=eastwest;whiteSpace=wrap;html=1;" vertex="1" parent="ZtRgjq0Z7VZzeEkhGhvm-28">
          <mxGeometry y="34" width="350" height="26" as="geometry" />
        </mxCell>
        <mxCell id="ZtRgjq0Z7VZzeEkhGhvm-32" value="BattleField" style="swimlane;fontStyle=1;align=center;verticalAlign=top;childLayout=stackLayout;horizontal=1;startSize=26;horizontalStack=0;resizeParent=1;resizeParentMax=0;resizeLast=0;collapsible=1;marginBottom=0;whiteSpace=wrap;html=1;" vertex="1" parent="WIyWlLk6GJQsqaUBKTNV-1">
          <mxGeometry x="1620" y="870" width="350" height="60" as="geometry" />
        </mxCell>
        <mxCell id="ZtRgjq0Z7VZzeEkhGhvm-34" value="" style="line;strokeWidth=1;fillColor=none;align=left;verticalAlign=middle;spacingTop=-1;spacingLeft=3;spacingRight=3;rotatable=0;labelPosition=right;points=[];portConstraint=eastwest;strokeColor=inherit;" vertex="1" parent="ZtRgjq0Z7VZzeEkhGhvm-32">
          <mxGeometry y="26" width="350" height="8" as="geometry" />
        </mxCell>
        <mxCell id="ZtRgjq0Z7VZzeEkhGhvm-35" value="+ fight(lutemon1: Lutemon, lutemon2: Lutemon): StringBuilder" style="text;strokeColor=none;fillColor=none;align=left;verticalAlign=top;spacingLeft=4;spacingRight=4;overflow=hidden;rotatable=0;points=[[0,0.5],[1,0.5]];portConstraint=eastwest;whiteSpace=wrap;html=1;" vertex="1" parent="ZtRgjq0Z7VZzeEkhGhvm-32">
          <mxGeometry y="34" width="350" height="26" as="geometry" />
        </mxCell>
        <mxCell id="ZtRgjq0Z7VZzeEkhGhvm-36" value="Dead" style="swimlane;fontStyle=1;align=center;verticalAlign=top;childLayout=stackLayout;horizontal=1;startSize=26;horizontalStack=0;resizeParent=1;resizeParentMax=0;resizeLast=0;collapsible=1;marginBottom=0;whiteSpace=wrap;html=1;" vertex="1" parent="WIyWlLk6GJQsqaUBKTNV-1">
          <mxGeometry x="1620" y="940" width="350" height="34" as="geometry" />
        </mxCell>
        <mxCell id="ZtRgjq0Z7VZzeEkhGhvm-38" value="" style="line;strokeWidth=1;fillColor=none;align=left;verticalAlign=middle;spacingTop=-1;spacingLeft=3;spacingRight=3;rotatable=0;labelPosition=right;points=[];portConstraint=eastwest;strokeColor=inherit;" vertex="1" parent="ZtRgjq0Z7VZzeEkhGhvm-36">
          <mxGeometry y="26" width="350" height="8" as="geometry" />
        </mxCell>
        <mxCell id="ZtRgjq0Z7VZzeEkhGhvm-40" value="&lt;div&gt;Storage&lt;/div&gt;" style="swimlane;fontStyle=1;align=center;verticalAlign=top;childLayout=stackLayout;horizontal=1;startSize=26;horizontalStack=0;resizeParent=1;resizeParentMax=0;resizeLast=0;collapsible=1;marginBottom=0;whiteSpace=wrap;html=1;" vertex="1" parent="WIyWlLk6GJQsqaUBKTNV-1">
          <mxGeometry x="1130" y="720" width="400" height="290" as="geometry" />
        </mxCell>
        <mxCell id="ZtRgjq0Z7VZzeEkhGhvm-41" value="&lt;div&gt;- home: Home&lt;/div&gt;&lt;div&gt;- battlefield: BattleField&lt;/div&gt;&lt;div&gt;- training: TrainingArea&lt;/div&gt;&lt;div&gt;- dead: Dead&lt;/div&gt;&lt;div&gt;- &lt;u&gt;storage: Storage&lt;/u&gt;&lt;/div&gt;&lt;div&gt;+ Location: Location&lt;br&gt;&lt;/div&gt;" style="text;strokeColor=none;fillColor=none;align=left;verticalAlign=top;spacingLeft=4;spacingRight=4;overflow=hidden;rotatable=0;points=[[0,0.5],[1,0.5]];portConstraint=eastwest;whiteSpace=wrap;html=1;" vertex="1" parent="ZtRgjq0Z7VZzeEkhGhvm-40">
          <mxGeometry y="26" width="400" height="94" as="geometry" />
        </mxCell>
        <mxCell id="ZtRgjq0Z7VZzeEkhGhvm-42" value="" style="line;strokeWidth=1;fillColor=none;align=left;verticalAlign=middle;spacingTop=-1;spacingLeft=3;spacingRight=3;rotatable=0;labelPosition=right;points=[];portConstraint=eastwest;strokeColor=inherit;" vertex="1" parent="ZtRgjq0Z7VZzeEkhGhvm-40">
          <mxGeometry y="120" width="400" height="8" as="geometry" />
        </mxCell>
        <mxCell id="ZtRgjq0Z7VZzeEkhGhvm-43" value="&lt;div&gt;+ Storage()&lt;/div&gt;&lt;div&gt;+ &lt;u&gt;getInstance(): Storage&lt;/u&gt;&lt;/div&gt;&lt;div&gt;+ getHome(): Home&lt;/div&gt;&lt;div&gt;+ getBattlefield(): Battlefield&lt;/div&gt;&lt;div&gt;+ getTraining(): Training&lt;/div&gt;&lt;div&gt;+ getDead(): Dead&lt;/div&gt;&lt;div&gt;+ getLutemons(): ArrayList&amp;lt;Lutemon&amp;gt;&lt;br&gt;&lt;/div&gt;&lt;div&gt;+ moveLutemon(from: Location, to: Location, lutemon: Lutemon): void&lt;br&gt;&lt;/div&gt;&lt;div&gt;+ saveLutemons(context: Context): void&lt;/div&gt;&lt;div&gt;+ loadLutemons(context: Context): void&lt;br&gt;&lt;/div&gt;" style="text;strokeColor=none;fillColor=none;align=left;verticalAlign=top;spacingLeft=4;spacingRight=4;overflow=hidden;rotatable=0;points=[[0,0.5],[1,0.5]];portConstraint=eastwest;whiteSpace=wrap;html=1;" vertex="1" parent="ZtRgjq0Z7VZzeEkhGhvm-40">
          <mxGeometry y="128" width="400" height="162" as="geometry" />
        </mxCell>
        <mxCell id="ZtRgjq0Z7VZzeEkhGhvm-89" style="edgeStyle=orthogonalEdgeStyle;rounded=0;orthogonalLoop=1;jettySize=auto;html=1;exitX=0;exitY=0.25;exitDx=0;exitDy=0;entryX=1;entryY=0.5;entryDx=0;entryDy=0;" edge="1" parent="WIyWlLk6GJQsqaUBKTNV-1" source="ZtRgjq0Z7VZzeEkhGhvm-44" target="ZtRgjq0Z7VZzeEkhGhvm-43">
          <mxGeometry relative="1" as="geometry" />
        </mxCell>
        <mxCell id="ZtRgjq0Z7VZzeEkhGhvm-44" value="&lt;div&gt;&amp;lt;&amp;lt;enumeration&amp;gt;&amp;gt;&lt;/div&gt;&lt;div&gt;Location&lt;br&gt;&lt;/div&gt;" style="swimlane;fontStyle=0;childLayout=stackLayout;horizontal=1;startSize=33;fillColor=none;horizontalStack=0;resizeParent=1;resizeParentMax=0;resizeLast=0;collapsible=1;marginBottom=0;whiteSpace=wrap;html=1;" vertex="1" parent="WIyWlLk6GJQsqaUBKTNV-1">
          <mxGeometry x="1580" y="990" width="140" height="100" as="geometry" />
        </mxCell>
        <mxCell id="ZtRgjq0Z7VZzeEkhGhvm-46" value="&lt;div&gt;HOME&lt;/div&gt;&lt;div&gt;TRAINING&lt;/div&gt;&lt;div&gt;BATTLEFIELD&lt;/div&gt;&lt;div&gt;DEAD&lt;br&gt;&lt;/div&gt;" style="text;strokeColor=none;fillColor=none;align=left;verticalAlign=top;spacingLeft=4;spacingRight=4;overflow=hidden;rotatable=0;points=[[0,0.5],[1,0.5]];portConstraint=eastwest;whiteSpace=wrap;html=1;" vertex="1" parent="ZtRgjq0Z7VZzeEkhGhvm-44">
          <mxGeometry y="33" width="140" height="67" as="geometry" />
        </mxCell>
        <mxCell id="ZtRgjq0Z7VZzeEkhGhvm-84" value="Extends" style="endArrow=block;endSize=16;endFill=0;html=1;rounded=0;exitX=0;exitY=0.25;exitDx=0;exitDy=0;" edge="1" parent="WIyWlLk6GJQsqaUBKTNV-1" source="ZtRgjq0Z7VZzeEkhGhvm-4" target="ZtRgjq0Z7VZzeEkhGhvm-1">
          <mxGeometry width="160" relative="1" as="geometry">
            <mxPoint x="1830" y="1130" as="sourcePoint" />
            <mxPoint x="1990" y="1130" as="targetPoint" />
          </mxGeometry>
        </mxCell>
        <mxCell id="ZtRgjq0Z7VZzeEkhGhvm-85" value="Extends" style="endArrow=block;endSize=16;endFill=0;html=1;rounded=0;exitX=0;exitY=0.25;exitDx=0;exitDy=0;entryX=0.997;entryY=0.793;entryDx=0;entryDy=0;entryPerimeter=0;" edge="1" parent="WIyWlLk6GJQsqaUBKTNV-1" source="ZtRgjq0Z7VZzeEkhGhvm-8" target="ZtRgjq0Z7VZzeEkhGhvm-1">
          <mxGeometry width="160" relative="1" as="geometry">
            <mxPoint x="1600" y="1200" as="sourcePoint" />
            <mxPoint x="1500" y="1230" as="targetPoint" />
          </mxGeometry>
        </mxCell>
        <mxCell id="ZtRgjq0Z7VZzeEkhGhvm-86" value="Extends" style="endArrow=block;endSize=16;endFill=0;html=1;rounded=0;exitX=0;exitY=0.25;exitDx=0;exitDy=0;entryX=1;entryY=0.07;entryDx=0;entryDy=0;entryPerimeter=0;" edge="1" parent="WIyWlLk6GJQsqaUBKTNV-1" source="ZtRgjq0Z7VZzeEkhGhvm-11" target="ZtRgjq0Z7VZzeEkhGhvm-3">
          <mxGeometry width="160" relative="1" as="geometry">
            <mxPoint x="1610" y="1210" as="sourcePoint" />
            <mxPoint x="1520" y="1209" as="targetPoint" />
          </mxGeometry>
        </mxCell>
        <mxCell id="ZtRgjq0Z7VZzeEkhGhvm-87" value="Extends" style="endArrow=block;endSize=16;endFill=0;html=1;rounded=0;exitX=0;exitY=0.25;exitDx=0;exitDy=0;entryX=1.006;entryY=0.278;entryDx=0;entryDy=0;entryPerimeter=0;" edge="1" parent="WIyWlLk6GJQsqaUBKTNV-1" source="ZtRgjq0Z7VZzeEkhGhvm-14" target="ZtRgjq0Z7VZzeEkhGhvm-3">
          <mxGeometry width="160" relative="1" as="geometry">
            <mxPoint x="1620" y="1220" as="sourcePoint" />
            <mxPoint x="1530" y="1219" as="targetPoint" />
          </mxGeometry>
        </mxCell>
        <mxCell id="ZtRgjq0Z7VZzeEkhGhvm-88" value="Extends" style="endArrow=block;endSize=16;endFill=0;html=1;rounded=0;exitX=0;exitY=0.25;exitDx=0;exitDy=0;entryX=1;entryY=0.482;entryDx=0;entryDy=0;entryPerimeter=0;" edge="1" parent="WIyWlLk6GJQsqaUBKTNV-1" source="ZtRgjq0Z7VZzeEkhGhvm-17" target="ZtRgjq0Z7VZzeEkhGhvm-3">
          <mxGeometry width="160" relative="1" as="geometry">
            <mxPoint x="1630" y="1230" as="sourcePoint" />
            <mxPoint x="1540" y="1229" as="targetPoint" />
          </mxGeometry>
        </mxCell>
        <mxCell id="ZtRgjq0Z7VZzeEkhGhvm-90" value="" style="endArrow=diamondThin;endFill=1;endSize=24;html=1;rounded=0;exitX=0;exitY=0.25;exitDx=0;exitDy=0;entryX=1;entryY=0.5;entryDx=0;entryDy=0;" edge="1" parent="WIyWlLk6GJQsqaUBKTNV-1" source="ZtRgjq0Z7VZzeEkhGhvm-24" target="ZtRgjq0Z7VZzeEkhGhvm-41">
          <mxGeometry width="160" relative="1" as="geometry">
            <mxPoint x="940" y="1050" as="sourcePoint" />
            <mxPoint x="1100" y="1050" as="targetPoint" />
          </mxGeometry>
        </mxCell>
        <mxCell id="ZtRgjq0Z7VZzeEkhGhvm-91" value="" style="endArrow=diamondThin;endFill=1;endSize=24;html=1;rounded=0;exitX=0;exitY=0.25;exitDx=0;exitDy=0;entryX=1.001;entryY=0.748;entryDx=0;entryDy=0;entryPerimeter=0;" edge="1" parent="WIyWlLk6GJQsqaUBKTNV-1" source="ZtRgjq0Z7VZzeEkhGhvm-28" target="ZtRgjq0Z7VZzeEkhGhvm-41">
          <mxGeometry width="160" relative="1" as="geometry">
            <mxPoint x="1630" y="733" as="sourcePoint" />
            <mxPoint x="1540" y="803" as="targetPoint" />
          </mxGeometry>
        </mxCell>
        <mxCell id="ZtRgjq0Z7VZzeEkhGhvm-92" value="" style="endArrow=diamondThin;endFill=1;endSize=24;html=1;rounded=0;exitX=0;exitY=0.25;exitDx=0;exitDy=0;entryX=1.007;entryY=0.999;entryDx=0;entryDy=0;entryPerimeter=0;" edge="1" parent="WIyWlLk6GJQsqaUBKTNV-1" source="ZtRgjq0Z7VZzeEkhGhvm-32" target="ZtRgjq0Z7VZzeEkhGhvm-41">
          <mxGeometry width="160" relative="1" as="geometry">
            <mxPoint x="1640" y="743" as="sourcePoint" />
            <mxPoint x="1533" y="842" as="targetPoint" />
          </mxGeometry>
        </mxCell>
        <mxCell id="ZtRgjq0Z7VZzeEkhGhvm-93" value="" style="endArrow=diamondThin;endFill=1;endSize=24;html=1;rounded=0;exitX=0;exitY=0.25;exitDx=0;exitDy=0;" edge="1" parent="WIyWlLk6GJQsqaUBKTNV-1" source="ZtRgjq0Z7VZzeEkhGhvm-36">
          <mxGeometry width="160" relative="1" as="geometry">
            <mxPoint x="1650" y="753" as="sourcePoint" />
            <mxPoint x="1530" y="860" as="targetPoint" />
          </mxGeometry>
        </mxCell>
        <mxCell id="ZtRgjq0Z7VZzeEkhGhvm-94" value="Extends" style="endArrow=block;endSize=16;endFill=0;html=1;rounded=0;exitX=1;exitY=0.25;exitDx=0;exitDy=0;entryX=0;entryY=0.25;entryDx=0;entryDy=0;" edge="1" parent="WIyWlLk6GJQsqaUBKTNV-1" source="ZtRgjq0Z7VZzeEkhGhvm-24" target="ZtRgjq0Z7VZzeEkhGhvm-20">
          <mxGeometry width="160" relative="1" as="geometry">
            <mxPoint x="2020" y="930" as="sourcePoint" />
            <mxPoint x="2180" y="930" as="targetPoint" />
          </mxGeometry>
        </mxCell>
        <mxCell id="ZtRgjq0Z7VZzeEkhGhvm-95" value="Extends" style="endArrow=block;endSize=16;endFill=0;html=1;rounded=0;exitX=1;exitY=0.25;exitDx=0;exitDy=0;entryX=0;entryY=0.5;entryDx=0;entryDy=0;" edge="1" parent="WIyWlLk6GJQsqaUBKTNV-1" source="ZtRgjq0Z7VZzeEkhGhvm-28" target="ZtRgjq0Z7VZzeEkhGhvm-21">
          <mxGeometry width="160" relative="1" as="geometry">
            <mxPoint x="1980" y="733" as="sourcePoint" />
            <mxPoint x="2090" y="813" as="targetPoint" />
          </mxGeometry>
        </mxCell>
        <mxCell id="ZtRgjq0Z7VZzeEkhGhvm-96" value="Extends" style="endArrow=block;endSize=16;endFill=0;html=1;rounded=0;exitX=1;exitY=0.25;exitDx=0;exitDy=0;entryX=0.004;entryY=0.049;entryDx=0;entryDy=0;entryPerimeter=0;" edge="1" parent="WIyWlLk6GJQsqaUBKTNV-1" source="ZtRgjq0Z7VZzeEkhGhvm-32" target="ZtRgjq0Z7VZzeEkhGhvm-23">
          <mxGeometry width="160" relative="1" as="geometry">
            <mxPoint x="1990" y="743" as="sourcePoint" />
            <mxPoint x="2100" y="823" as="targetPoint" />
          </mxGeometry>
        </mxCell>
        <mxCell id="ZtRgjq0Z7VZzeEkhGhvm-97" value="Extends" style="endArrow=block;endSize=16;endFill=0;html=1;rounded=0;exitX=1;exitY=0.5;exitDx=0;exitDy=0;entryX=0;entryY=0.5;entryDx=0;entryDy=0;" edge="1" parent="WIyWlLk6GJQsqaUBKTNV-1" source="ZtRgjq0Z7VZzeEkhGhvm-36" target="ZtRgjq0Z7VZzeEkhGhvm-23">
          <mxGeometry width="160" relative="1" as="geometry">
            <mxPoint x="2000" y="753" as="sourcePoint" />
            <mxPoint x="2110" y="833" as="targetPoint" />
          </mxGeometry>
        </mxCell>
        <mxCell id="ZtRgjq0Z7VZzeEkhGhvm-98" value="" style="endArrow=diamondThin;endFill=0;endSize=24;html=1;rounded=0;entryX=0.511;entryY=1.007;entryDx=0;entryDy=0;entryPerimeter=0;exitX=0.5;exitY=0;exitDx=0;exitDy=0;" edge="1" parent="WIyWlLk6GJQsqaUBKTNV-1" source="ZtRgjq0Z7VZzeEkhGhvm-0" target="ZtRgjq0Z7VZzeEkhGhvm-43">
          <mxGeometry width="160" relative="1" as="geometry">
            <mxPoint x="1170" y="1050" as="sourcePoint" />
            <mxPoint x="1330" y="1050" as="targetPoint" />
          </mxGeometry>
        </mxCell>
        <mxCell id="ZtRgjq0Z7VZzeEkhGhvm-99" value="Serializable" style="html=1;whiteSpace=wrap;" vertex="1" parent="WIyWlLk6GJQsqaUBKTNV-1">
          <mxGeometry x="1960" y="1096" width="110" height="50" as="geometry" />
        </mxCell>
        <mxCell id="ZtRgjq0Z7VZzeEkhGhvm-100" style="edgeStyle=orthogonalEdgeStyle;rounded=0;orthogonalLoop=1;jettySize=auto;html=1;entryX=0;entryY=0.5;entryDx=0;entryDy=0;" edge="1" parent="WIyWlLk6GJQsqaUBKTNV-1" source="ZtRgjq0Z7VZzeEkhGhvm-1" target="ZtRgjq0Z7VZzeEkhGhvm-99">
          <mxGeometry relative="1" as="geometry">
            <Array as="points">
              <mxPoint x="1780" y="1120" />
              <mxPoint x="1780" y="1121" />
            </Array>
          </mxGeometry>
        </mxCell>
        <mxCell id="ZtRgjq0Z7VZzeEkhGhvm-101" style="edgeStyle=orthogonalEdgeStyle;rounded=0;orthogonalLoop=1;jettySize=auto;html=1;entryX=1;entryY=0.5;entryDx=0;entryDy=0;" edge="1" parent="WIyWlLk6GJQsqaUBKTNV-1" source="ZtRgjq0Z7VZzeEkhGhvm-23" target="ZtRgjq0Z7VZzeEkhGhvm-99">
          <mxGeometry relative="1" as="geometry">
            <Array as="points">
              <mxPoint x="2200" y="1121" />
            </Array>
          </mxGeometry>
        </mxCell>
      </root>
    </mxGraphModel>
  </diagram>
</mxfile>
